<svg width="50" height="50" viewBox="0 0 50 50" fill="none" xmlns="http://www.w3.org/2000/svg">
<path d="M0 0V50H50V0H0ZM26.3106 40.8889H15.6964H10.4779V9.11446H26.3106V13.7058H15.6964V22.5987V27.0298V36.3283H26.3106V40.8889ZM42.6614 40.8889H36.1715L26.8287 28.3455H18.7163L20.6456 23.8292H29.8998C33.6287 23.8292 36.0386 21.8113 36.0386 18.6993C36.0386 16.2997 34.6343 14.5034 32.3846 13.8012C32.1631 13.733 31.9313 13.7058 31.6995 13.7058H30.0907L32.0472 9.12468C34.4468 9.45191 36.4374 10.2734 38.0564 11.5959C40.2038 13.3513 41.2571 15.7168 41.2571 18.6584C41.2571 23.5701 38.0564 26.948 32.7493 27.824L42.6614 40.8889Z" fill="#F4D390"/>
</svg>
