<svg width="45" height="45" viewBox="0 0 45 45" fill="none" xmlns="http://www.w3.org/2000/svg">
<rect width="45" height="45" fill="#F7F9F9"/>
<path d="M16.0714 16.7144H11.5714V30.8572H16.0714V16.7144Z" fill="#306767"/>
<path d="M16.7143 12.8562C16.6846 11.397 15.7215 10.2856 14.1577 10.2856C12.5938 10.2856 11.5714 11.397 11.5714 12.8562C11.5714 14.2851 12.5636 15.4285 14.0983 15.4285H14.1275C15.7215 15.4285 16.7143 14.2851 16.7143 12.8562Z" fill="#306767"/>
<path d="M33.4286 22.934C33.4286 18.6897 31.0393 16.7144 27.8522 16.7144C25.2808 16.7144 24.1295 18.0555 23.4867 18.9964V17.0392H18.6429C18.7067 18.3358 18.6429 30.8572 18.6429 30.8572H23.4867V23.1401C23.4867 22.7271 23.5181 22.3152 23.6462 22.0195C23.9962 21.1944 24.7932 20.3402 26.1313 20.3402C27.8845 20.3402 28.5854 21.6073 28.5854 23.4642V30.8568H33.4284L33.4286 22.934Z" fill="#306767"/>
</svg>
