<svg width="45" height="45" viewBox="0 0 45 45" fill="none" xmlns="http://www.w3.org/2000/svg">
<rect width="45" height="45" fill="#F7F9F9"/>
<path d="M21.8351 18.1585L21.8866 19.0205L21.0273 18.9149C17.8994 18.5103 15.1667 17.1382 12.8466 14.8338L11.7122 13.6903L11.4201 14.5347C10.8014 16.417 11.1967 18.4048 12.4856 19.7417C13.1731 20.4805 13.0184 20.5861 11.8326 20.1463C11.4201 20.0056 11.0592 19.9 11.0248 19.9528C10.9045 20.0759 11.317 21.6767 11.6435 22.31C12.0903 23.1896 13.0012 24.0515 13.998 24.5617L14.8402 24.9663L13.8434 24.9839C12.8809 24.9839 12.8466 25.0015 12.9497 25.3709C13.2934 26.5143 14.6511 27.7281 16.1635 28.2558L17.2291 28.6252L16.301 29.1881C14.9261 29.9973 13.3106 30.4547 11.6951 30.4899C10.9217 30.5075 10.2858 30.5778 10.2858 30.6306C10.2858 30.8065 12.3825 31.7916 13.6028 32.1786C17.2635 33.3221 21.6117 32.8295 24.8771 30.8769C27.1973 29.4872 29.5174 26.7254 30.6002 24.0515C31.1845 22.6266 31.7689 20.0232 31.7689 18.7742C31.7689 17.965 31.8204 17.8594 32.7829 16.8919C33.35 16.329 33.8828 15.7133 33.9859 15.5374C34.1578 15.2032 34.1406 15.2032 33.2641 15.5022C31.8033 16.03 31.597 15.9596 32.3188 15.168C32.8516 14.6051 33.4875 13.5848 33.4875 13.2857C33.4875 13.233 33.2297 13.3209 32.9376 13.4792C32.6282 13.6552 31.9407 13.919 31.4251 14.0773L30.4971 14.3764L29.6549 13.7959C29.1909 13.4792 28.5378 13.1274 28.1941 13.0219C27.3176 12.7756 25.977 12.8108 25.1865 13.0922C23.0381 13.8838 21.6804 15.9244 21.8351 18.1585Z" fill="#306767"/>
</svg>
