<svg width="70" height="70" viewBox="0 0 70 70" fill="none" xmlns="http://www.w3.org/2000/svg">
<rect width="70" height="70" fill="#F7F9F9"/>
<path d="M33.9656 28.2465L34.0458 29.5873L32.7091 29.4231C27.8434 28.7938 23.5926 26.6594 19.9834 23.0747L18.219 21.296L17.7645 22.6095C16.802 25.5374 17.4169 28.6296 19.422 30.7092C20.4914 31.8585 20.2508 32.0227 18.4061 31.3386C17.7645 31.1197 17.2031 30.9555 17.1496 31.0376C16.9624 31.2292 17.6041 33.7193 18.112 34.7044C18.8071 36.0726 20.2241 37.4134 21.7747 38.207L23.0847 38.8364L21.534 38.8637C20.0369 38.8637 19.9834 38.8911 20.1439 39.4657C20.6785 41.2444 22.7906 43.1325 25.1432 43.9534L26.8008 44.5281L25.3571 45.4037C23.2183 46.6625 20.7053 47.3739 18.1922 47.4287C16.9892 47.456 16 47.5655 16 47.6476C16 47.9212 19.2616 49.4536 21.1598 50.0556C26.8542 51.8343 33.6181 51.0681 38.6976 48.0307C42.3068 45.8689 45.9159 41.5728 47.6002 37.4134C48.5092 35.1969 49.4182 31.1471 49.4182 29.2042C49.4182 27.9455 49.4984 27.7813 50.9955 26.2763C51.8778 25.4006 52.7065 24.4429 52.8669 24.1692C53.1343 23.6493 53.1075 23.6493 51.7441 24.1145C49.4716 24.9354 49.1508 24.826 50.2737 23.5946C51.1025 22.719 52.0916 21.1318 52.0916 20.6666C52.0916 20.5846 51.6906 20.7214 51.2361 20.9677C50.7549 21.2413 49.6855 21.6518 48.8835 21.898L47.4398 22.3632L46.1298 21.4602C45.408 20.9677 44.3921 20.4204 43.8574 20.2562C42.4939 19.8731 40.4086 19.9278 39.1788 20.3656C35.837 21.597 33.725 24.7713 33.9656 28.2465Z" fill="#306767"/>
</svg>
