<svg width="70" height="70" viewBox="0 0 70 70" fill="none" xmlns="http://www.w3.org/2000/svg">
<rect width="70" height="70" fill="#F7F9F9"/>
<path d="M25 26H18V48H25V26Z" fill="#306767"/>
<path d="M26 19.9986C25.9538 17.7288 24.4558 16 22.0231 16C19.5904 16 18 17.7288 18 19.9986C18 22.2214 19.5434 24 21.9308 24H21.9762C24.4558 24 26 22.2214 26 19.9986Z" fill="#306767"/>
<path d="M52 35.675C52 29.0728 48.2833 26 43.3256 26C39.3256 26 37.5347 28.0863 36.5348 29.5499V26.5053H29C29.0993 28.5223 29 48 29 48H36.5348V35.9956C36.5348 35.3532 36.5837 34.7123 36.7829 34.2524C37.3274 32.969 38.5672 31.6403 40.6486 31.6403C43.3759 31.6403 44.4661 33.6113 44.4661 36.4998V47.9994H51.9997L52 35.675Z" fill="#306767"/>
</svg>
